<?xml version="1.0" encoding="utf-8"?>
<svg version="1.1" id="Layer_1" xmlns="http://www.w3.org/2000/svg" xmlns:xlink="http://www.w3.org/1999/xlink" x="0px" y="0px" width="48px" height="16px" viewBox="0 0 48 16" style="enable-background:new 0 0 48 16;" xml:space="preserve">
    <rect x="16" fill="none" width="16" height="16" />
    <g>
        <rect fill="none" width="16" height="16" />
        <path fill="#ffffff" d="M8.44,8.59l5.38-3.95c-0.14-0.39-0.5-0.68-0.93-0.68H3.11c-0.44,0-0.8,0.29-0.93,0.68l5.38,3.95
		C7.79,8.76,8.21,8.76,8.44,8.59z M9.03,9.39C8.74,9.61,8.37,9.71,8,9.71c-0.37,0-0.74-0.11-1.03-0.32L2.11,5.83v5.2
		c0,0.55,0.45,1,1,1h9.79c0.55,0,1-0.45,1-1v-5.2L9.03,9.39z" />
    </g>
    <path fill="#ffffff" d="M24,2.2c-2.49,0-4.5,2.01-4.5,4.5s3.52,7.09,4.5,7.09c0.98,0,4.5-4.61,4.5-7.09S26.49,2.2,24,2.2z M24,8.22
	c-0.81,0-1.47-0.66-1.47-1.47S23.19,5.29,24,5.29c0.81,0,1.47,0.66,1.47,1.47S24.81,8.22,24,8.22z" />
    <g>
        <rect x="32" fill="none" width="16" height="16" />
        <path fill="#ffffff" d="M34.91,11.56c1.31,0.11,2.46,0.03,3.42-0.27c-1.32-0.95-2.45-2.28-3.23-4.3l1.52,0.2
		c-1.14-0.69-1.09-2.03-0.93-3.43c1.15,1.63,2.66,2.62,4.55,2.92C39.76,4.24,42,2.97,43.91,4.44c0.41-0.12,0.8-0.11,1.17-0.05
		c0.01,0.74-0.14,1.34-0.49,1.76C43.96,10.77,41.7,13.63,34.91,11.56z" />
    </g>
</svg>